<svg width="17" height="20" viewBox="0 0 17 20" fill="none" xmlns="http://www.w3.org/2000/svg">
<path d="M16.4031 8.87505C16.1961 8.87505 16.0281 8.70705 16.0281 8.50005C16.0281 6.29655 15.1701 4.2243 13.6116 2.66655C13.4654 2.5203 13.4654 2.28255 13.6116 2.1363C13.7579 1.99005 13.9956 1.99005 14.1419 2.1363C15.8421 3.8358 16.7781 6.09555 16.7781 8.50005C16.7781 8.70705 16.6101 8.87505 16.4031 8.87505Z" fill="#A6A6A6" stroke="#A6A6A6" stroke-width="0.3"/>
<path d="M0.65332 8.87505C0.44632 8.87505 0.27832 8.70705 0.27832 8.50005C0.27832 6.09555 1.21432 3.8358 2.91457 2.1363C3.06082 1.99005 3.29857 1.99005 3.44482 2.1363C3.59107 2.28255 3.59107 2.5203 3.44482 2.66655C1.88632 4.2243 1.02832 6.29655 1.02832 8.50005C1.02832 8.70705 0.86032 8.87505 0.65332 8.87505V8.87505Z" fill="#A6A6A6" stroke="#A6A6A6" stroke-width="0.3"/>
<path d="M9.65332 4.135C9.44632 4.135 9.27832 3.967 9.27832 3.76V2.5C9.27832 2.08675 8.94157 1.75 8.52832 1.75C8.11507 1.75 7.77832 2.08675 7.77832 2.5V3.76C7.77832 3.967 7.61032 4.135 7.40332 4.135C7.19632 4.135 7.02832 3.96775 7.02832 3.76V2.5C7.02832 1.67275 7.70107 1 8.52832 1C9.35557 1 10.0283 1.67275 10.0283 2.5V3.76C10.0283 3.96775 9.86032 4.135 9.65332 4.135Z" fill="#A6A6A6" stroke="#A6A6A6" stroke-width="0.3"/>
<path d="M8.52832 19C7.08082 19 5.90332 17.8225 5.90332 16.375C5.90332 16.168 6.07132 16 6.27832 16C6.48532 16 6.65332 16.168 6.65332 16.375C6.65332 17.4085 7.49482 18.25 8.52832 18.25C9.56182 18.25 10.4033 17.4085 10.4033 16.375C10.4033 16.168 10.5713 16 10.7783 16C10.9853 16 11.1533 16.168 11.1533 16.375C11.1533 17.8225 9.97582 19 8.52832 19Z" fill="#A6A6A6" stroke="#A6A6A6" stroke-width="0.3"/>
<path d="M14.9033 16.75H2.15332C1.53307 16.75 1.02832 16.2453 1.02832 15.625C1.02832 15.2957 1.17157 14.9845 1.42207 14.77C2.60407 13.771 3.27832 12.3175 3.27832 10.7785V8.5C3.27832 5.605 5.63332 3.25 8.52832 3.25C11.4233 3.25 13.7783 5.605 13.7783 8.5V10.7785C13.7783 12.3183 14.4526 13.771 15.6286 14.7648C15.8851 14.9845 16.0283 15.2957 16.0283 15.625C16.0283 16.2453 15.5243 16.75 14.9033 16.75ZM8.52832 4C6.04657 4 4.02832 6.01825 4.02832 8.5V10.7785C4.02832 12.5395 3.25732 14.2008 1.91257 15.3378C1.82632 15.4113 1.77832 15.5155 1.77832 15.625C1.77832 15.832 1.94632 16 2.15332 16H14.9033C15.1103 16 15.2783 15.832 15.2783 15.625C15.2783 15.5155 15.2303 15.4113 15.1471 15.34C13.8001 14.2008 13.0283 12.5387 13.0283 10.7785V8.5C13.0283 6.01825 11.0101 4 8.52832 4Z" fill="#A6A6A6" stroke="#A6A6A6" stroke-width="0.3"/>
</svg>
