<svg width="48" height="48" viewBox="0 0 48 48" fill="none" xmlns="http://www.w3.org/2000/svg">
<path d="M25.3833 5.30938C25.142 5.2661 24.8948 5.34363 24.7214 5.51702C24.7214 5.51702 9.88645 20.352 4.27179 25.9666C3.56946 26.669 3.1748 27.6216 3.1748 28.6149C3.1748 29.6083 3.56946 30.5609 4.27179 31.2632C7.31346 34.305 12.8855 39.8771 15.9273 42.9187C16.6296 43.6211 17.5822 44.0157 18.5757 44.0157C19.569 44.0157 20.5215 43.6211 21.2239 42.9187C26.8385 37.3041 41.6735 22.4691 41.6735 22.4691C41.8428 22.2998 41.9211 22.0598 41.8838 21.8231L39.7747 8.40228C39.7251 8.08691 39.4811 7.83761 39.167 7.78125L25.3833 5.30938Z" fill="url(#paint0_linear_2_3961)"/>
<path d="M16.4291 23.1063C17.1598 22.3754 18.3465 22.3754 19.0773 23.1063C19.8082 23.8371 19.8082 25.0237 19.0773 25.7545C18.3465 26.4855 17.1598 26.4855 16.4291 25.7545C15.6981 25.0237 15.6981 23.8371 16.4291 23.1063Z" fill="white"/>
<path d="M26.6125 23.2261C27.3433 22.4953 28.5301 22.4953 29.2609 23.2261C29.9917 23.9568 29.9917 25.1435 29.2609 25.8744C28.5301 26.6052 27.3433 26.6052 26.6125 25.8744C25.8818 25.1435 25.8818 23.9568 26.6125 23.2261Z" fill="white"/>
<path d="M36.3309 11.061C34.9389 9.66901 34.9389 7.4087 36.3309 6.0167C37.7229 4.6247 39.9832 4.6247 41.3752 6.0167C42.7672 7.4087 42.7672 9.66901 41.3752 11.061C41.0661 11.37 40.6907 11.6206 40.3149 11.7923L40.5579 13.33C41.2297 13.0847 41.8958 12.659 42.4345 12.1204C44.4112 10.1436 44.4112 6.93409 42.4345 4.95733C40.4578 2.9807 37.2483 2.9807 35.2715 4.95733C33.2949 6.93409 33.2949 10.1436 35.2715 12.1204C35.5638 12.4127 36.0386 12.4127 36.3309 12.1204C36.6232 11.8279 36.6232 11.3533 36.3309 11.061Z" fill="url(#paint1_linear_2_3961)"/>
<path d="M22.4276 31.3351C22.3796 31.6846 22.5854 32.0302 22.932 32.1463C23.3241 32.2775 23.749 32.0658 23.8802 31.6737C23.895 31.6293 23.9245 31.5185 23.9264 31.3421C23.9287 31.1187 23.9008 30.5751 23.8504 29.8241C23.6078 26.2079 22.8566 17.5994 22.8566 17.5994C22.8208 17.1875 22.4571 16.8824 22.0454 16.9183C21.6335 16.9543 21.3283 17.3178 21.3642 17.7297C21.3642 17.7297 22.1136 26.317 22.3556 29.9244C22.4027 30.6266 22.4248 31.249 22.4276 31.3351Z" fill="white"/>
<defs>
<linearGradient id="paint0_linear_2_3961" x1="20.3829" y1="4.64424" x2="20.3829" y2="42.6988" gradientUnits="userSpaceOnUse">
<stop stop-color="#FF7456"/>
<stop offset="1" stop-color="#FF0000"/>
</linearGradient>
<linearGradient id="paint1_linear_2_3961" x1="35.4905" y1="5.19449" x2="41.5249" y2="12.3601" gradientUnits="userSpaceOnUse">
<stop stop-color="#477294"/>
<stop offset="1" stop-color="#1C3D57"/>
</linearGradient>
</defs>
</svg>
