<svg width="46" height="48" viewBox="0 0 46 48" fill="none" xmlns="http://www.w3.org/2000/svg">
<path d="M29.4316 8.99054C29.4316 8.16308 28.7887 7.49243 27.9959 7.49243C23.4722 7.49243 9.54806 7.49243 5.02456 7.49243C4.23158 7.49243 3.58887 8.16308 3.58887 8.99054V28.4661H29.4316V8.99054Z" fill="url(#paint0_linear_2_3952)"/>
<path d="M20.0995 7.49243H12.9209V15.1581C12.9209 15.4281 13.0601 15.677 13.285 15.8099C13.5101 15.943 13.7864 15.9394 14.0081 15.8005C14.7335 15.3464 15.6424 14.7772 16.1408 14.4652C16.3682 14.3229 16.6522 14.3229 16.8795 14.4652C17.3779 14.7772 18.2869 15.3464 19.0123 15.8005C19.234 15.9394 19.5103 15.943 19.7352 15.8099C19.9603 15.677 20.0995 15.4281 20.0995 15.1581C20.0995 12.659 20.0995 7.49243 20.0995 7.49243Z" fill="url(#paint1_linear_2_3952)"/>
<path d="M29.4316 28.4659H3.58887V33.7093C3.58887 34.504 3.89136 35.2661 4.42979 35.8279C4.96835 36.3899 5.69867 36.7056 6.46025 36.7056H39.4815C40.243 36.7056 40.9734 36.3899 41.5119 35.8279C42.0504 35.2661 42.3529 34.504 42.3529 33.7093C42.3529 31.353 42.3529 24.7205 42.3529 24.7205C42.3529 24.7205 37.7413 16.7003 36.3104 14.212C36.0509 13.7608 35.5837 13.4846 35.0794 13.4846C33.3435 13.4846 29.4316 13.4846 29.4316 13.4846V28.4659Z" fill="url(#paint2_linear_2_3952)"/>
<path d="M35.6648 36.7054C35.6648 37.5555 35.0293 38.0698 34.4565 38.0698C33.8836 38.0698 33.2481 37.5555 33.2481 36.7054C33.2481 35.8554 33.8836 35.341 34.4565 35.341C35.0293 35.341 35.6648 35.8554 35.6648 36.7054Z" fill="#DDE6EF" stroke="url(#paint3_linear_2_3952)" stroke-width="4.7619"/>
<path d="M12.6931 36.7054C12.6931 37.5555 12.0577 38.0698 11.4848 38.0698C10.9119 38.0698 10.2765 37.5555 10.2765 36.7054C10.2765 35.8554 10.9119 35.341 11.4848 35.341C12.0577 35.341 12.6931 35.8554 12.6931 36.7054Z" fill="#DDE6EF" stroke="url(#paint4_linear_2_3952)" stroke-width="4.7619"/>
<defs>
<linearGradient id="paint0_linear_2_3952" x1="15.0745" y1="7.1385" x2="15.0745" y2="27.7528" gradientUnits="userSpaceOnUse">
<stop stop-color="#FF7456"/>
<stop offset="1" stop-color="#FF0000"/>
</linearGradient>
<linearGradient id="paint1_linear_2_3952" x1="15.3687" y1="7.73747" x2="19.2811" y2="14.2664" gradientUnits="userSpaceOnUse">
<stop stop-color="#E9F5F8"/>
<stop offset="1" stop-color="#DDE6EF"/>
</linearGradient>
<linearGradient id="paint2_linear_2_3952" x1="16.8066" y1="14.1608" x2="23.6623" y2="36.5478" gradientUnits="userSpaceOnUse">
<stop stop-color="#E9F5F8"/>
<stop offset="1" stop-color="#DDE6EF"/>
</linearGradient>
<linearGradient id="paint3_linear_2_3952" x1="34.4565" y1="32.9601" x2="34.798" y2="39.8411" gradientUnits="userSpaceOnUse">
<stop stop-color="#477294"/>
<stop offset="1" stop-color="#1C3D57"/>
</linearGradient>
<linearGradient id="paint4_linear_2_3952" x1="11.4848" y1="32.9601" x2="11.8264" y2="39.8411" gradientUnits="userSpaceOnUse">
<stop stop-color="#477294"/>
<stop offset="1" stop-color="#1C3D57"/>
</linearGradient>
</defs>
</svg>
