<svg width="21" height="18" viewBox="0 0 21 18" fill="none" xmlns="http://www.w3.org/2000/svg">
<path d="M10.4973 18L10.2635 17.8787C10.1669 17.8281 7.85402 16.6298 5.50559 14.5567C4.11788 13.3281 3.00974 12.0539 2.21168 10.7596C1.19504 9.11124 0.681641 7.43258 0.681641 5.77416C0.681641 4.32809 1.26112 2.86685 2.27268 1.77472C3.32998 0.632022 4.71261 0 6.1664 0C7.87435 0 9.47048 0.79382 10.5024 2.11348C11.5292 0.79382 13.1253 0 14.8332 0C16.287 0 17.6697 0.632022 18.727 1.77472C19.7385 2.87191 20.318 4.32809 20.318 5.77416C20.318 7.43258 19.8046 9.11124 18.788 10.7545C17.9899 12.0489 16.8818 13.3281 15.4941 14.5517C13.1456 16.6247 10.8328 17.8281 10.7362 17.8736L10.4973 18ZM6.1664 1.01124C3.78747 1.01124 1.69828 3.23595 1.69828 5.77416C1.69828 9.13146 4.13821 11.9933 6.18165 13.7983C8.01668 15.4163 9.86188 16.4983 10.4973 16.8522C11.1378 16.4983 12.9982 15.4062 14.8332 13.7831C16.8716 11.9781 19.3014 9.1264 19.3014 5.77416C19.3014 3.23595 17.2122 1.01124 14.8332 1.01124C13.2219 1.01124 11.7325 1.8809 10.9446 3.2764L10.5024 4.06011L10.0601 3.2764C9.26715 1.8809 7.77777 1.01124 6.1664 1.01124Z" fill="#A6A6A6"/>
</svg>
