<svg width="12" height="7" viewBox="0 0 12 7" fill="none" xmlns="http://www.w3.org/2000/svg">
<path d="M5.40727 6.57744L0.729455 2.02744C0.621175 1.9222 0.561523 1.78172 0.561523 1.63193C0.561523 1.48214 0.621175 1.34166 0.729455 1.23642L1.07386 0.901344C1.29829 0.683308 1.66304 0.683308 1.88712 0.901344L5.81527 4.72209L9.74777 0.897105C9.85605 0.791869 10.0004 0.733765 10.1543 0.733765C10.3084 0.733765 10.4527 0.791869 10.5611 0.897105L10.9054 1.23218C11.0137 1.3375 11.0734 1.4779 11.0734 1.62769C11.0734 1.77748 11.0137 1.91796 10.9054 2.0232L6.22334 6.57744C6.11472 6.68292 5.96969 6.74086 5.81552 6.74053C5.66075 6.74086 5.51581 6.68292 5.40727 6.57744Z" fill="black"/>
</svg>
