<svg width="73" height="70" viewBox="0 0 73 70" fill="none" xmlns="http://www.w3.org/2000/svg">
<path d="M0.000976562 34.8456C0.000976562 31.14 4.4217 28.1495 5.46187 24.769C6.56705 21.3234 4.81176 16.3176 6.95711 13.3921C9.10246 10.4666 14.3683 10.5966 17.2938 8.5163C20.2193 6.43596 21.6495 1.30012 25.1601 0.194944C28.4756 -0.845225 32.7013 2.34029 36.4069 2.34029C40.1125 2.34029 44.3382 -0.845225 47.6538 0.194944C51.0993 1.30012 52.5946 6.43596 55.52 8.5163C58.4455 10.6617 63.7114 10.4666 65.8567 13.3921C67.9371 16.3176 66.1818 21.2584 67.352 24.769C68.4571 28.1495 72.8129 31.075 72.8129 34.8456C72.8129 38.5512 68.3921 41.5417 67.352 44.9222C66.2468 48.3678 68.0021 53.3736 65.8567 56.2991C63.7114 59.1596 58.4455 59.0295 55.52 61.1749C52.5946 63.2552 51.1643 68.3911 47.6538 69.4963C44.2732 70.6014 40.1125 67.3509 36.4069 67.3509C32.7013 67.3509 28.4756 70.5364 25.1601 69.4963C21.7145 68.3911 20.2193 63.2552 17.2938 61.1749C14.3683 59.0295 9.10246 59.2246 6.95711 56.2991C4.87677 53.3736 6.63206 48.4328 5.46187 44.9222C4.4217 41.5417 0.000976562 38.5512 0.000976562 34.8456Z" fill="#FF0000"/>
</svg>
